<svg xmlns="http://www.w3.org/2000/svg" version="1.1" xmlns:xlink="http://www.w3.org/1#262626/xlink" xmlns:svgjs="http://svgjs.com/svgjs" width="1000" height="1000"><rect width="1000" height="1000" rx="200" ry="200" fill="#ffffff"></rect><g transform="matrix(1,0,0,1,0,0)"><svg xmlns="http://www.w3.org/2000/svg" version="1.1" xmlns:xlink="http://www.w3.org/1#262626/xlink" xmlns:svgjs="http://svgjs.com/svgjs" width="800px" height="800px"><svg width="800px" height="800px" viewBox="0 0 24 24" id="Layer_1" data-name="Layer 1" xmlns="http://www.w3.org/2000/svg"><defs><style>.cls-1{fill:none;stroke:#020202;stroke-miterlimit:10;stroke-width:1.95px;}</style></defs><path class="cls-1" d="M16.89,6.14h3.9a2,2,0,0,1,2,2v7.82a2,2,0,0,1-2,1.95H14.93l-1.42-2.12a1.81,1.81,0,0,0-3,0L9.07,17.86H3.21a2,2,0,0,1-2-1.95V8.09a2,2,0,0,1,2-1.95H16.89Z"></path><circle class="cls-1" cx="6.14" cy="12" r="1.95"></circle><circle class="cls-1" cx="17.86" cy="12" r="1.95"></circle></svg></svg></g></svg>